u+2500:
'─':
    ........
    ........
    ........
    ........
    ........
    ........
    ........
    @@@@@@@@
    @@@@@@@@
    ........
    ........
    ........
    ........
    ........
    ........
    ........

u+2502:
'│':
    ...@@...
    ...@@...
    ...@@...
    ...@@...
    ...@@...
    ...@@...
    ...@@...
    ...@@...
    ...@@...
    ...@@...
    ...@@...
    ...@@...
    ...@@...
    ...@@...
    ...@@...
    ...@@...

u+250c:
'┌':
    ........
    ........
    ........
    ........
    ........
    ........
    ........
    ...@@@@@
    ...@@@@@
    ...@@...
    ...@@...
    ...@@...
    ...@@...
    ...@@...
    ...@@...
    ...@@...

u+2510:
'┐':
    ........
    ........
    ........
    ........
    ........
    ........
    @@@@@...
    @@@@@...
    ...@@...
    ...@@...
    ...@@...
    ...@@...
    ...@@...
    ...@@...
    ...@@...
    ...@@...

u+2514:
'└':
    ...@@...
    ...@@...
    ...@@...
    ...@@...
    ...@@...
    ...@@...
    ...@@...
    ...@@@@@
    ...@@@@@
    ........
    ........
    ........
    ........
    ........
    ........
    ........

u+2518:
'┘':
    ...@@...
    ...@@...
    ...@@...
    ...@@...
    ...@@...
    ...@@...
    ...@@...
    @@@@@...
    @@@@@...
    ........
    ........
    ........
    ........
    ........
    ........
    ........

u+251c:
'├':
    ...@@...
    ...@@...
    ...@@...
    ...@@...
    ...@@...
    ...@@...
    ...@@...
    ...@@@@@
    ...@@@@@
    ...@@...
    ...@@...
    ...@@...
    ...@@...
    ...@@...
    ...@@...
    ...@@...

u+2524:
'┤':
    ...@@...
    ...@@...
    ...@@...
    ...@@...
    ...@@...
    ...@@...
    ...@@...
    @@@@@...
    @@@@@...
    ...@@...
    ...@@...
    ...@@...
    ...@@...
    ...@@...
    ...@@...
    ...@@...

u+252c:
'┬':
    ........
    ........
    ........
    ........
    ........
    ........
    ........
    @@@@@@@@
    @@@@@@@@
    ...@@...
    ...@@...
    ...@@...
    ...@@...
    ...@@...
    ...@@...
    ...@@...

u+2534:
'┴':
    ...@@...
    ...@@...
    ...@@...
    ...@@...
    ...@@...
    ...@@...
    ...@@...
    @@@@@@@@
    @@@@@@@@
    ........
    ........
    ........
    ........
    ........
    ........
    ........

u+253c:
'┼':
    ...@@...
    ...@@...
    ...@@...
    ...@@...
    ...@@...
    ...@@...
    ...@@...
    @@@@@@@@
    @@@@@@@@
    ...@@...
    ...@@...
    ...@@...
    ...@@...
    ...@@...
    ...@@...
    ...@@...

u+2550:
'═':
    ........
    ........
    ........
    ........
    ........
    @@@@@@@@
    @@@@@@@@
    ........
    ........
    @@@@@@@@
    @@@@@@@@
    ........
    ........
    ........
    ........
    ........

u+2551:
'║':
    .@@..@@.
    .@@..@@.
    .@@..@@.
    .@@..@@.
    .@@..@@.
    .@@..@@.
    .@@..@@.
    .@@..@@.
    .@@..@@.
    .@@..@@.
    .@@..@@.
    .@@..@@.
    .@@..@@.
    .@@..@@.
    .@@..@@.
    .@@..@@.

u+2554:
'╔':
    ........
    ........
    ........
    ........
    ........
    .@@@@@@@
    .@@@@@@@
    .@@.....
    .@@.....
    .@@..@@@
    .@@..@@@
    .@@..@@.
    .@@..@@.
    .@@..@@.
    .@@..@@.
    .@@..@@.

u+2557:
'╗':
    ........
    ........
    ........
    ........
    @@@@@@@.
    @@@@@@@.
    .....@@.
    .....@@.
    @@@..@@.
    @@@..@@.
    .@@..@@.
    .@@..@@.
    .@@..@@.
    .@@..@@.
    .@@..@@.
    .@@..@@.

u+255a:
'╚':
    .@@..@@.
    .@@..@@.
    .@@..@@.
    .@@..@@.
    .@@..@@.
    .@@..@@@
    .@@..@@@
    .@@.....
    .@@.....
    .@@@@@@@
    .@@@@@@@
    ........
    ........
    ........
    ........
    ........

u+255d:
'╝':
    .@@..@@.
    .@@..@@.
    .@@..@@.
    .@@..@@.
    @@@..@@.
    @@@..@@.
    .....@@.
    .....@@.
    @@@@@@@.
    @@@@@@@.
    ........
    ........
    ........
    ........
    ........
    ........

u+2560:
'╠':
    .@@..@@.
    .@@..@@.
    .@@..@@.
    .@@..@@.
    .@@..@@.
    .@@..@@@
    .@@..@@@
    .@@.....
    .@@.....
    .@@..@@@
    .@@..@@@
    .@@..@@.
    .@@..@@.
    .@@..@@.
    .@@..@@.
    .@@..@@.

u+2563:
'╣':
    .@@..@@.
    .@@..@@.
    .@@..@@.
    .@@..@@.
    .@@..@@.
    @@@..@@.
    @@@..@@.
    .....@@.
    .....@@.
    @@@..@@.
    @@@..@@.
    .@@..@@.
    .@@..@@.
    .@@..@@.
    .@@..@@.
    .@@..@@.

u+2566:
'╦':
    ........
    ........
    ........
    ........
    ........
    @@@@@@@@
    @@@@@@@@
    ........
    ........
    @@@..@@@
    @@@..@@@
    .@@..@@.
    .@@..@@.
    .@@..@@.
    .@@..@@.
    .@@..@@.

u+2569:
'╩':
    .@@..@@.
    .@@..@@.
    .@@..@@.
    .@@..@@.
    .@@..@@.
    @@@..@@@
    @@@..@@@
    ........
    ........
    @@@@@@@@
    @@@@@@@@
    ........
    ........
    ........
    ........
    ........

u+256c:
'╬':
    .@@..@@.
    .@@..@@.
    .@@..@@.
    .@@..@@.
    .@@..@@.
    @@@..@@@
    @@@..@@@
    ........
    ........
    @@@..@@@
    @@@..@@@
    .@@..@@.
    .@@..@@.
    .@@..@@.
    .@@..@@.
    .@@..@@.
